/* XPM */
static char * genaric_app_xpm[] = {
/* width height ncolors cpp [x_hot y_hot] */
"32 32 5 1 -1 -1",
/* colors */
" 	s none	m none	c none",
".	s Color1	m black	c black",
"X	s topShadowColor	m white	c #bdbdbdbdbdbd",
"o	s Gray5	m black	c #737373737373",
"O	s Color2	m white	c white",
/* pixels */
"                                ",
"                                ",
"  ............................  ",
"  .XXXXXXXXXXXXXXXXXXXXXXXXXX.o ",
"  .XXXXXXXXXXXXXXXXXXXXXXXXXX.oo",
"  .XXXXXXXXXXXXXXXXXXXXXXXXXX.oo",
"  .XXXXXXXXXXXXXXXXXXXXXXXXXX.oo",
"  ............................oo",
"  .OOOOOOOOOOOOOOOOOOOOOOOOOO.oo",
"  .OOOOOOOOOOOOOOOOOOOOOOOOOO.oo",
"  .OOOOOOOOOOOOOOOOOOOOOOOOOO.oo",
"  .OOOOOOOOOOOOOOOOOOOOOOOOOO.oo",
"  .OOOOOOOOOOOOOOOOOOOOOOOOOO.oo",
"  .OOOOOOOOOOOOOOOOOOOOOOOOOO.oo",
"  .OOOOOOOOOOOOOOOOOOOOOOOOOO.oo",
"  .OOOOOOOOOOOOOOOOOOOOOOOOOO.oo",
"  .OOOOOOOOOOOOOOOOOOOOOOOOOO.oo",
"  .OOOOOOOOOOOOOOOOOOOOOOOOOO.oo",
"  .OOOOOOOOOOOOOOOOOOOOOOOOOO.oo",
"  .OOOOOOOOOOOOOOOOOOOOOOOOOO.oo",
"  .OOOOOOOOOOOOOOOOOOOOOOOOOO.oo",
"  .OOOOOOOOOOOOOOOOOOOOOOOOOO.oo",
"  .OOOOOOOOOOOOOOOOOOOOOOOOOO.oo",
"  .OOOOOOOOOOOOOOOOOOOOOOOOOO.oo",
"  .OOOOOOOOOOOOOOOOOOOOOOOOOO.oo",
"  .OOOOOOOOOOOOOOOOOOOOOOOOOO.oo",
"  .OOOOOOOOOOOOOOOOOOOOOOOOOO.oo",
"  .OOOOOOOOOOOOOOOOOOOOOOOOOO.oo",
"  .OOOOOOOOOOOOOOOOOOOOOOOOOO.oo",
"  ............................oo",
"   ooooooooooooooooooooooooooooo",
"    oooooooooooooooooooooooooooo"};
