/* XPM */
static char * progpres_xpm[] = {
/* width height ncolors cpp [x_hot y_hot] */
"32 32 9 1 -1 -1",
/* colors */
" 	s Color1	m black	c black",
".	s none	m none	c none",
"X	s Gray3	m white	c #adadadadadad",
"o	s Color2	m white	c white",
"O	s Color16	m white	c skyblue",
"+	s Gray1	m white	c #dededededede",
"@	s Gray4	m white	c #949494949494",
"#	s Color12	m white	c yellow",
"$	s Color15	m black	c slateblue",
/* pixels */
"                      ..........",
" XXXXXXX XXXX XXXXXXX ..........",
" X                  X ..........",
" X ooooo OOOO ooooo X ..........",
" X o+++@ OOOO o+++@ X ..........",
" X o+++@ OOOO o+++@ X ..........",
" X o+++@ OOOO o+++@ X ..........",
" X o@@@@ OOOO o@@@@ X ..........",
"                      ..........",
" X oooooooooooooooo X ..........",
" X ooooooo                      ",
" X ooooooo ####### #### ####### ",
" X ooooooo #                  # ",
"   ooooooo # ooooo $$$$ ooooo # ",
" X ooooooo # o+++@ $$$$ o+++@ # ",
" X ooooooo # o+++@ $$$$ o+++@ # ",
" X ooooooo # o+++@ $$$$ o+++@ # ",
" X ooooooo # o@@@@ $$$$ o@@@@ # ",
" X ooooooo                      ",
" X         # oooooooooooooooo # ",
" XXXXXXX X # oooooooooooooooo # ",
"           # oooooooooooooooo # ",
".......... # oooooooooooooooo # ",
"..........   oooooooooooooooo # ",
".......... # oooooooooooooooo   ",
".......... # oooooooooooooooo # ",
".......... # oooooooooooooooo # ",
".......... # oooooooooooooooo # ",
".......... # oooooooooooooooo # ",
".......... #                  # ",
".......... ####### #### ####### ",
"........O.                      "};
